<?xml version="1.0" encoding="UTF-8"?>
<svg width="189px" height="182px" viewBox="0 0 189 182" version="1.1" xmlns="http://www.w3.org/2000/svg" xmlns:xlink="http://www.w3.org/1999/xlink">
    <!-- Generator: Sketch 63.1 (92452) - https://sketch.com -->
    <title>Koi-Fish</title>
    <desc>Created with Sketch.</desc>
    <g id="Page-1" stroke="none" stroke-width="1" fill="none" fill-rule="evenodd" fill-opacity="0.75">
        <g id="Koi-Fish" fill="#DFDFDF" fill-rule="nonzero" stroke="#CDCDCD" stroke-width="0.0938">
            <g id="_x23_ffffffff">
                <path d="M137.224409,0.786 C138.627953,0.292 140.141732,0.39 141.604331,0.394 C141.675197,0.4 141.814961,0.414 141.885827,0.422 C142.856319,0.72 144.110236,0.9 144.580709,1.952 C146.084646,5.02 146.903543,8.362 148.108268,11.55 C149.104331,14.092 150.541339,16.446 151.320866,19.076 C152.214567,22.108 152.614154,25.258 153.125984,28.372 C153.698819,31.856 154.346457,35.326 154.94685,38.804 C155.26378,40.55 154.893701,42.314 154.834646,44.064 C154.692913,47.668 154.448819,51.284 153.718504,54.82 C153.67126,54.932 153.574803,55.154 153.525591,55.266 C153.372047,54.108 153.224409,52.95 153.110236,51.786 C153.019685,50.786 152.46063,49.916 151.799213,49.202 C150.63189,47.964 149.356299,46.834 148.135827,45.652 C149.283465,44.738 148.212598,42.882 147.005906,42.654 C146.740157,41.894 146.387795,41.172 146.076772,40.432 C145.637795,39.396 145.557087,38.192 144.82874,37.296 C144.023622,36.312 142.811024,35.646 142.358268,34.39 C141.846457,33.06 141.287402,31.538 139.913386,30.906 C138.779528,30.358 137.572835,30.97 136.448819,31.218 C135.450787,31.472 134.273622,31.92 133.962598,33.03 C133.761811,33.82 133.312992,34.502 133.047244,35.264 L133.027559,35.358 C132.956693,35.206 132.897638,35.052 132.850394,34.896 C133.124016,34.382 133.653543,33.862 133.494094,33.228 C132.651575,32.982 132.36811,33.946 131.907461,34.424 C130.675197,34.214 129.389744,34.362 128.183051,33.98 C127.259823,34.22 126.283445,34.348 125.448799,34.84 C124.675177,35.314 124.22439,36.282 124.350374,37.19 C124.468484,37.906 125.033445,38.41 125.55313,38.856 C126.305098,39.466 126.964547,40.21 127.8425,40.642 C126.614154,41.19 125.147618,41.314 124.161398,42.318 C123.366122,43.09 123.297224,44.298 122.616122,45.146 C122.139744,45.736 121.708642,46.36 121.295256,46.998 C120.74998,47.836 120.011791,48.526 119.498012,49.384 C119.031476,50.158 118.866122,51.06 118.594469,51.912 C118.190925,53.18 117.653524,54.404 117.047224,55.584 C117.068878,55.248 117.07872,54.91 117.157461,54.582 C118.568878,49.788 120.055098,45.018 121.519665,40.24 C122.42124,37.454 123.003917,34.54 123.015728,31.602 C122.875965,28.83 123.415335,26.09 123.629902,23.338 C124.155492,21.168 125.035413,19.112 125.824783,17.032 C126.51376,15.328 127.108248,13.582 127.909429,11.926 C128.71061,10.19 129.923209,8.704 130.931083,7.094 C131.627933,6.424 132.049193,5.534 132.659429,4.792 C133.874016,3.156 135.316929,1.57 137.224409,0.786 M136.543307,2.716 C135.759843,3.498 135.570866,4.68 135.586614,5.75 C134.718504,5.77 133.80315,6.018 133.214567,6.708 C132.143701,7.942 132.005906,9.77 132.42126,11.304 C132.600394,12.086 133.277559,12.628 133.454724,13.408 C133.307087,14.344 132.503937,15.256 133.009843,16.23 C133.28937,17.004 134.476378,16.914 134.724409,16.174 C134.897618,15.462 134.665354,14.728 134.761791,14.01 C135.019685,13.562 135.622047,13.59 136.035413,13.358 C137.80313,12.508 139.179114,10.53 138.854311,8.484 C139.929114,8.8 140.257854,10.074 141.220453,10.568 C142.074783,11.106 143.352343,11.466 144.137756,10.614 C144.935,9.684 144.929094,8.254 144.555079,7.14 C143.933031,5.922 143.070827,4.688 141.755866,4.19 C140.586575,3.738 139.72437,2.782 138.810984,1.954 C138.011811,2.002 137.141732,2.116 136.543307,2.716 M141.035433,13.306 C139.998031,13.94 139.492126,15.132 138.98622,16.194 C138.40748,17.59 137.511811,19.022 137.818898,20.602 C138.017717,21.682 139.192913,22.224 140.187008,22.13 C141.167323,22.026 142.110236,21.686 143.015748,21.306 C144.031496,20.906 144.71063,19.686 144.389764,18.604 C144.194882,17.682 144.049213,16.75 143.972441,15.808 C143.909449,14.788 143.279528,13.852 142.423228,13.34 C142.003937,13.088 141.46063,13.062 141.035433,13.306 M133.954724,17.698 C133.312992,18.002 133.348425,18.948 133.612205,19.506 C133.901575,20.23 134.94685,19.968 135.295276,19.43 C135.887795,18.602 134.840551,17.426 133.954724,17.698 M129.834646,19.128 C129.344488,19.292 128.812992,19.628 128.726378,20.188 C128.51378,21.218 129.484252,22.34 130.547244,22.03 C131.730315,21.854 132.100394,20.21 131.350394,19.376 C130.956693,18.978 130.334646,18.976 129.834646,19.128 M133.198819,20.94 C132.265728,21.398 131.801181,22.446 131.444882,23.376 C130.96063,24.586 131.214567,26.038 132.072835,27.008 C132.566929,27.546 132.80315,28.36 133.48622,28.69 C134.269685,28.814 135.041339,28.218 135.340551,27.504 C135.793307,26.378 135.545276,25.136 135.370079,23.978 C135.214567,23.262 135.706693,22.538 135.419291,21.842 C135.045276,21.028 134.009843,20.7 133.198819,20.94 M128.812992,23.056 C128.049213,23.508 127.435039,24.28 127.269685,25.178 C126.903543,26.816 126.620079,28.516 125.799213,30 C125.442913,30.482 125.720472,31.134 126.110236,31.494 C126.683071,31.75 127.409449,31.526 127.761811,31.004 C128.545276,29.906 128.490157,28.47 129.041339,27.272 C129.519705,26.28 130.360236,25.368 130.269705,24.186 C130.26378,23.476 129.521654,22.716 128.812992,23.056 M144.996063,24.316 C144.51378,24.636 144.30315,25.244 144.251969,25.802 C144.179134,26.618 144.903543,27.214 144.958661,28.01 C144.931102,28.68 144.588583,29.316 144.67126,29.996 C144.785433,31.092 145.507874,31.966 145.858268,32.98 C146.05315,33.444 146.149606,33.996 146.55315,34.332 C147.108268,34.744 147.923228,34.628 148.429134,34.182 C148.998031,33.696 149.470472,32.964 149.403543,32.182 C149.242146,31.316 149.064961,30.422 148.557087,29.688 C148.055118,28.814 147.088583,28.316 146.663386,27.388 C146.529528,26.684 146.909449,25.896 146.501969,25.236 C146.198819,24.732 145.661417,23.984 144.996063,24.316 M132.92126,29.24 C132.356299,29.406 132.301181,30.294 132.761811,30.614 C133.094488,30.85 133.679134,30.792 133.852362,30.37 C134.161417,29.786 133.566929,28.97 132.92126,29.24 M150.555118,32.208 C150.474409,32.75 150.718504,33.268 150.759843,33.802 C150.687008,34.252 150.153543,34.67 150.496063,35.124 C150.612205,35.456 150.966535,35.792 150.801181,36.166 C149.51378,36.276 148.507874,35.016 147.273622,34.974 C146.690945,35.746 147.143701,36.794 146.716535,37.622 C146.425197,38.19 146.167323,38.774 145.982283,39.386 C145.889764,40.594 147.234252,41.4 148.277559,40.962 C148.872047,40.818 149.51378,40.408 150.124016,40.692 C150.590551,41.518 150.655512,42.57 151.32874,43.276 C151.771654,43.7 152.301181,43.184 152.568898,42.812 C153.029528,42.314 153.019685,41.608 153.025591,40.97 C152.994094,40.516 153.419291,40.236 153.527559,39.828 C153.616142,38.968 153.793307,38.032 153.32874,37.246 C153.110236,36.672 152.442913,36.498 152.15748,35.992 C152.253937,35.594 152.525591,35.23 152.496063,34.808 C152.360236,34.312 151.962598,33.936 151.852362,33.434 C151.732283,32.998 151.73622,32.51 151.468504,32.13 C151.257874,31.796 150.716535,31.862 150.555118,32.208 Z" id="Shape"></path>
                <path d="M115.86811,36.936 C116.427165,36.938 117.090551,36.782 117.561024,37.188 C118.061024,37.728 118.185039,38.552 117.976378,39.25 C117.068898,42.368 115.996063,45.432 114.874016,48.478 C113.718504,51.61 112.088583,54.552 111.177165,57.78 C110.948819,58.626 109.913386,58.604 109.230315,58.484 C106.830709,57.99 104.687008,56.728 102.503937,55.664 C101.206693,55.036 99.730315,55.088 98.3287402,55.066 C96.7834646,54.196 95.2224409,53.332 93.5570866,52.718 C92.8425197,52.448 92.1338583,52.156 91.4468504,51.818 C90.5019685,50.89 89.3011811,49.976 89.246063,48.512 C89.9822835,47.906 90.8031496,47.42 91.6476378,46.986 C92.3661417,46.872 93.0649606,46.668 93.746063,46.408 C97.6023622,45.088 101.470472,43.79 105.261811,42.286 C106.320866,41.83 107.442913,41.496 108.391732,40.816 C110.962598,39.69 113.48622,38.436 115.86811,36.936 M108.5,41.66 C107.966535,41.546 107.482283,41.832 107.110236,42.19 C106.259843,42.474 105.438976,42.86 104.738189,43.432 C103.854331,44.132 102.679134,44.186 101.714567,44.722 C101.122047,45.02 100.683051,45.532 100.216535,45.992 C99.7106299,46.524 98.9350394,46.542 98.273622,46.72 C97.5669291,46.878 96.9783465,47.36 96.269685,47.51 C95.738189,47.518 95.1929134,47.26 94.6830709,47.512 C94.019685,47.684 93.4940945,48.298 93.4960575,49.006 C93.5885827,49.602 94.1318898,49.974 94.6003937,50.272 C95.1968504,50.568 95.8582677,50.296 96.3070866,49.86 C96.9370079,49.804 97.4744094,49.48 98.0492126,49.248 C98.8779528,49.198 99.4409449,49.968 100.206693,50.162 C101.192913,50.406 102.228346,50.094 103.21063,50.378 C104.375984,50.712 105.204724,51.702 106.336614,52.118 C106.663386,52.29 107.149606,52.39 107.246063,52.814 C107.301181,53.54 106.848425,54.332 107.309055,55 C107.685039,55.518 107.728346,56.192 108.074803,56.72 C108.173228,56.698 108.366142,56.654 108.462598,56.632 C108.875984,56.04 109.094488,55.314 109.212598,54.604 C109.232283,53.802 108.366142,53.448 108.05315,52.802 C107.972441,52.274 108.287402,51.754 108.161417,51.224 C108.11811,50.82 107.944882,50.41 108.057087,50.006 C109.42126,47.442 112.46063,46.098 113.287402,43.196 C113.222441,42.206 112.425197,41.456 111.570866,41.098 C110.521654,40.95 109.492126,41.368 108.5,41.66 Z" id="Shape"></path>
                <path d="M162.948819,41.136 C163.978346,40.512 165.242126,40.63 166.395669,40.596 C167.647638,40.774 168.86811,41.178 169.984252,41.788 C170.850394,42.562 171.868091,43.148 172.655492,44.018 C174.155512,45.63 176.157461,46.586 177.877933,47.916 C178.222421,48.174 178.584626,48.41 178.938957,48.656 C178.998012,48.73 179.120059,48.876 179.181083,48.948 C179.748012,49.72 180.255886,50.54 180.846437,51.296 C181.677146,52.22 182.978327,52.38 184.127933,52.588 C185.346437,53.138 186.521634,53.792 187.594469,54.6 C188.059035,55.158 188.582657,55.688 188.877933,56.368 C188.576752,57.374 188.604311,58.492 187.992106,59.388 C187.181083,60.614 186.037382,61.87 184.488169,61.956 C181.76376,62.086 179.14565,63.042 176.413366,63.09 C173.958642,63.096 171.564941,63.782 169.118091,63.856 C166.913366,63.848 164.986201,62.448 163.641713,60.776 C162.820846,59.666 161.358248,59.41 160.466516,58.386 C159.059035,56.92 158.647618,54.776 158.759823,52.796 C158.927146,49.75 159.913366,46.786 161.387776,44.142 C161.929134,43.156 162.01378,41.86 162.948819,41.136 M163.82874,45.416 C163.336614,45.746 162.905512,46.216 162.779528,46.818 C162.44685,48.09 163.248031,49.314 163.03937,50.59 C163.017717,51.29 162.748031,52.142 163.277559,52.72 C163.82874,53.306 164.677165,53.1 165.385827,53.202 C165.905512,53.368 166.36813,53.862 166.958681,53.664 C167.442933,53.55 167.572854,53.026 167.706713,52.612 L167.903563,52.744 C168.940965,53.338 170.322854,52.396 170.271673,51.208 C170.129941,49.892 169.273642,48.624 168.086634,48.05 C167.637815,47.808 167.147657,47.968 166.761831,48.244 C166.472461,47.438 166.399626,46.502 165.763799,45.872 C165.732303,45.506 165.751988,45.018 165.35435,44.848 C164.78937,44.566 164.129921,44.9 163.82874,45.416 M172.773622,52.016 C172.590551,52.596 173.019685,53.094 173.419291,53.444 C173.811043,53.832 174.423228,53.696 174.872047,53.972 C175.169291,54.59 174.92126,55.34 175.267717,55.952 C175.529528,56.368 175.135827,57.004 174.651575,56.94 C174.070866,56.808 173.687008,56.11 173.049213,56.22 C172.507874,56.366 172.003937,56.622 171.462598,56.756 C171.214587,56.292 171.188976,55.378 170.48622,55.45 C169.65748,55.5 169.69685,56.638 168.96063,56.842 C168.124016,57.14 167.208661,56.81 166.366142,57.046 C165.933071,57.21 166.104331,57.742 166.350394,58.006 C166.824803,58.634 167.653543,58.672 168.352362,58.85 C168.974409,58.97 169.476378,59.44 170.110236,59.524 C170.677165,59.522 171.139764,59.114 171.677165,58.976 C172.309055,58.964 172.734252,59.51 173.21063,59.85 C174.023622,60.508 175.096457,60.586 176.035433,60.966 C176.931102,61.322 177.633858,62.062 178.566929,62.342 C179.46063,62.642 180.377953,62.204 181.206693,61.878 C182.190945,61.488 182.954724,60.364 182.584646,59.28 C182.106299,58.07 180.962598,57.352 180.088583,56.46 C179.429134,55.748 178.474409,55.516 177.608268,55.18 C177.045276,54.982 176.950787,54.266 176.501969,53.94 C176.116142,53.804 175.708661,53.756 175.314961,53.674 C175.218504,53.11 175.391732,52.554 175.397638,51.992 C175.307087,51.314 174.602362,50.984 174.057087,50.734 C173.362205,50.672 172.917323,51.416 172.773622,52.016 M164.458661,55.18 C164.655512,55.508 164.938976,55.958 165.385827,55.876 C165.830709,55.67 166.047244,55.196 166.324803,54.816 C166.082677,54.466 165.942913,53.73 165.383858,53.9 C164.970472,54.196 164.374016,54.592 164.458661,55.18 Z" id="Shape"></path>
                <path d="M129.484252,44.66 C129.852382,44.25 130.273622,43.58 130.917323,43.792 C131.561024,44.018 132.338583,44.438 132.468504,45.182 C132.322835,45.884 131.586614,46.178 131.045276,46.518 C130.403543,46.85 129.962598,47.464 129.311024,47.78 C129.606299,47.264 129.899606,46.736 130.057087,46.156 C130.185039,45.588 129.824803,45.072 129.484252,44.66 Z" id="Path"></path>
                <path d="M128.218504,50.622 C128.519685,50.422 128.964567,50.492 129.244094,50.712 C129.509843,51.204 129.450787,51.87 129.883858,52.262 C130.415354,52.548 131.488189,52.328 131.51378,53.184 C131.44685,54.836 130.594488,56.308 130.033465,57.822 C129.777559,58.596 129.809055,59.588 129.051181,60.076 C128.277559,60.576 127.464567,59.722 127.285433,58.986 C127.177165,58.032 128.748031,58.146 128.677165,57.206 C128.509843,56.276 127.769685,55.608 127.488189,54.724 C127.273622,54.02 127.037402,53.32 126.877953,52.602 C126.925197,51.756 127.564961,51.08 128.218504,50.622 Z" id="Path"></path>
                <path d="M133.385827,52.34 C134.057087,52.19 135.033465,51.91 135.505906,52.596 C135.893701,53.478 135.448819,54.512 135.858268,55.394 C136.07874,55.93 136.61811,56.256 136.838583,56.786 C136.742126,57.172 136.503937,57.684 136.049213,57.6780522 C135.419291,57.198 134.966535,56.512 134.681102,55.774 C134.301181,54.76 133.358268,54.064 133.074803,53.002 C132.948819,52.748 133.135827,52.418 133.385827,52.34 Z" id="Path"></path>
                <path d="M138.259843,57.194 C138.933071,56.392 139.801181,55.74 140.779528,55.38 C141.393701,55.358 141.55315,56.116 141.433071,56.6 C141.147638,57.406 140.448819,58.144 139.574803,58.222 C138.996063,58.126 138.549213,57.688 138.259843,57.194 Z" id="Path"></path>
                <path d="M115.781496,59.6 C115.889764,59.13 116.082677,58.688 116.275591,58.25 C116.259843,59.636 115.496063,60.994 115.92126,62.38 C116.309055,63.428 117.023622,64.36 117.940945,64.988 C118.204724,65.996 118.787402,67.03 118.458661,68.094 C118.068898,69.376 117.141732,70.372 116.431102,71.474 C115.509843,72.872 113.872047,73.524 112.864173,74.84 C112.34252,75.508 111.925197,76.28 111.244094,76.804 C110.537402,77.342 109.712598,77.754 109.163386,78.48 C107.791339,80.22 107.533465,82.556 106.28937,84.37 C105.777559,85.194 104.687008,85.23 104.055118,85.904 C103.641732,86.482 103.38189,87.166 102.901575,87.698 C102.273622,88.498 101.423228,89.304 101.427165,90.402 C101.515748,91.218 101.73622,92.024 102.070866,92.77 C102.348425,93.368 102.885827,93.886 103.557087,93.958 C104.348425,94.022 105.147638,94.034 105.942913,93.982 C106.665354,93.956 107.188976,93.382 107.844488,93.154 C108.456693,92.91 109.181102,92.894 109.685039,92.42 C110.059055,92.158 110.375984,91.69 110.870079,91.69 C111.17126,91.978 111.387795,92.596 110.944882,92.856 C106.978346,96.374 102.659449,99.456 98.3110236,102.46 C94.9527559,104.754 91.488189,106.88 87.976378,108.922 C85.1732283,110.51 82.4192913,112.216 79.4488189,113.472 C77.3897638,114.354 75.2874016,115.13 73.1751969,115.872 C70.984252,116.648 68.6870079,117.328 66.8169291,118.776 C67.242126,118.856 67.6850394,118.972 68.1200787,118.864 C69.7283465,118.536 71.1023622,117.568 72.6122047,116.968 C75.6988189,115.796 78.8523622,114.818 81.9468504,113.668 C85.8976378,112.164 89.5708661,110.026 93.1791339,107.83198 C95.6220472,106.31598 98.0984252,104.856 100.531496,103.32198 C104.26378,100.95198 107.848425,98.33798 111.200787,95.43998 C111.320866,96.25998 111.246063,97.12198 111.51378,97.91198 C111.958661,98.59198 112.838583,98.73398 113.480315,99.16398 C112.159449,99.51798 110.700787,99.81398 109.732283,100.87798 C109.007874,101.65598 108.285433,102.53598 108.057087,103.60798 C107.872047,104.25398 108.507874,104.75998 109.094488,104.73998 C110.23622,104.71198 111.277559,104.12998 112.409449,104.02998 C112.940945,103.94598 113.503937,104.00398 114.015748,103.81198 C115.015748,103.19798 115.57874,102.09598 115.994094,101.02798 C116.362205,100.06798 117.234252,99.33998 117.28937,98.25798 C118.34252,98.37598 119.507874,98.80198 120.501969,98.22798 C121.529528,97.56398 121.824803,96.25198 122.663386,95.40598 C123.021654,94.99798 123.612205,94.63998 123.525591,94.00798 C123.464567,92.96998 123.074803,91.85198 123.535433,90.85798 C123.958661,90.37598 124.448819,90.97198 124.78937,91.24998 C125.305118,91.77598 126.11811,91.87998 126.787402,91.61998 C127.198819,91.45998 127.663386,91.33998 127.970453,90.99598 C128.194862,90.71398 127.946831,90.35798 127.897618,90.05798 C128.194862,89.44198 128.667303,88.92398 129.320846,88.70598 C130.393681,88.82798 131.415335,88.00398 131.706673,86.98398 C131.85628,86.52598 131.385807,86.25798 131.110217,86.00998 C131.299193,85.46998 131.492106,84.93398 131.694862,84.39998 C131.769665,84.99398 131.877933,85.61198 132.198799,86.12598 C132.305098,86.31198 132.462579,86.38398 132.673209,86.34398 C133.192894,86.02798 133.484232,85.37998 134.096437,85.21798 C135.011791,84.95998 136.007854,84.77198 136.716516,84.07198 C137.122028,83.74398 137.450768,83.22198 138.005886,83.15598 C138.76376,83.31598 139.269665,84.00198 139.994075,84.24598 C140.431083,84.37798 140.887776,84.24798 141.318878,84.14598 L141.639724,84.07198 C140.460591,85.96598 139.062953,87.71598 137.681063,89.45998 C136.604291,90.75798 135.51374,92.04998 134.291299,93.21198 C132.511772,94.87798 130.484213,96.27398 128.885787,98.13198 C124.960591,102.82798 121.521614,108.18998 116.244055,111.468 C113.328701,113.29 110.129882,114.562 107.120039,116.202 C104.055079,117.856 100.968465,119.502 97.677126,120.646 C85.6830315,125.018 72.958622,126.976 60.2735827,127.672 C58.8936614,127.77 57.6830315,128.552 56.3208268,128.736 C54.6594094,128.964 52.9763386,128.846 51.3109843,128.738 C49.161378,128.636 47.0058661,128.622 44.8562598,128.738 C41.5688583,128.958 38.3188583,129.532 35.0452362,129.866 C31.4369685,130.302 27.7322441,130.246 24.2361811,131.368 C23.8916929,131.478 23.5334252,131.538 23.1751575,131.586 C23.7794882,130.844 24.3621654,129.99 24.4664961,129.01 C24.188937,128.502 23.6909055,128.166 23.4094094,127.66 C23.169252,127.268 23.0019291,126.818 22.6574409,126.502 C22.0747638,126.502 21.6318504,126.96 21.0826378,127.094 C20.3739764,127.164 19.6298819,126.964 18.9487795,127.246 C17.8680709,127.634 17.1535039,128.598 16.2381496,129.25 C15.5570472,129.144 14.919252,129.428 14.3109843,129.696 C13.5452362,130.034 12.6436614,130.164 12.0472047,130.812 C11.6869685,131.194 11.3818504,131.832 11.7460236,132.316 C12.1790945,132.856 12.9369685,132.904 13.5668898,132.79 C13.5668898,133.31 13.4369685,133.858 13.6121654,134.36 C13.938937,134.904 14.6672835,134.794 15.1987795,134.766 C16.2538976,134.662 17.3208268,134.516 18.3031102,134.088 L18.7184646,134.058 C18.0255512,134.808 17.1712205,135.38 16.4763386,136.128 C14.7912992,137.884 13.185,139.84 12.3956299,142.192 C11.5826378,144.988 12.3188583,147.968 13.4763386,150.548 C14.7263386,153.454 16.6180709,156.002 18.1082283,158.77 L17.7558661,158.62 C17.1554724,158.022 16.4664961,157.364 15.5688583,157.354 C14.5787008,157.364 13.8011417,158.246 13.6318504,159.19 C13.1397244,161.658 13.161378,164.206 13.4172835,166.702 C12.9763386,165.642 12.169252,164.826 11.4448425,163.968 C11.2853937,163.742 11.1456299,163.502 10.9625591,163.3 C10.6869685,163.006 10.3011417,163.252 9.99208661,163.338 C9.44484252,163.57 8.80901575,163.868 8.59444882,164.476 C8.46452756,165.23 8.5373622,166.182 9.20271654,166.668 C9.73027559,167.05 10.4054724,166.922 10.9920866,166.788 C11.3129528,167.556 11.692874,168.342 11.696811,169.196 C11.669252,169.996 11.4409055,170.808 11.665315,171.6 C11.8936614,172.56 12.681063,173.266 13.5157087,173.706 C14.1338189,174.064 14.8562598,173.71998 15.5196457,173.86998 C15.7578346,174.24398 15.8129528,174.72998 16.1180709,175.06198 C16.6869685,175.44598 17.4684646,174.85798 17.4015354,174.20798 C17.1161024,173.84598 16.7361811,173.57798 16.446811,173.21998 C16.5176772,172.39998 17.165315,171.65998 16.8267323,170.81198 C17.5314567,171.04798 18.3720079,171.23998 18.7499606,171.96398 C19.2283071,172.89798 17.8109843,173.79198 18.4605906,174.66598 C18.8031102,175.14398 19.3031102,175.61198 19.9133465,175.65398 C20.3779134,175.54398 20.5924803,175.03398 20.6515354,174.59998 C20.8188583,173.81398 20.0412992,173.19998 20.1594094,172.42798 C20.4054724,171.83398 21.0334252,171.45998 21.1574409,170.80598 C21.2519291,170.19396 21.0412992,169.59798 20.927126,169.00598 C20.5727953,167.59396 20.7657087,166.08398 20.2283071,164.71198 C19.8050787,163.71398 19.8621654,162.61198 19.5865748,161.57798 C20.0038976,161.71998 20.161378,162.16198 20.3759449,162.50998 C20.6259449,162.99598 20.9487795,163.43598 21.2775197,163.86998 C22.2302756,166.468 22.8227953,169.19198 23.2066535,171.93398 C22.7401181,174.19598 23.1436614,176.51798 22.8562598,178.79798 C22.7263386,179.70998 22.4094094,180.81198 21.4645276,181.15798 C20.6200394,181.506 19.7440551,181.11998 18.8995669,180.99398 C18.1279134,180.84398 17.2381496,180.918 16.6200394,180.342 C15.3720079,179.272 14.9487795,177.612 14.2145276,176.2 C13.1279134,174.182 10.8129528,173.382 9.47240157,171.592 C7.45271654,168.976 5.74996063,166.126 4.12791339,163.242 C2.61019685,160.53 1.70468504,157.514 1.10822835,154.466 C0.505866142,151.702 -0.216574803,148.852 0.279488189,146.01 C0.854291339,142.654 2.49011811,139.632 3.99405512,136.632 C5.38775591,133.878 7.25586614,131.292 9.83066929,129.572 C13.9940551,126.73 19.0176772,125.828 23.7066535,124.268 C26.4842126,123.38 29.3621654,122.886 32.165315,122.09 C34.435,121.45 36.7322441,120.922 39.0294882,120.4 C42.3936614,119.878 45.7775197,119.394 49.0452362,118.402 C50.6180709,117.94 52.1535039,117.36 53.6869685,116.784 C54.0472047,116.726 54.4133465,116.702 54.7696457,116.614 C58.1180709,115.684 61.458622,114.672 64.6416929,113.248 C67.8700394,111.826 71.0098031,110.208 74.2578346,108.834 C78.0196457,107.16 81.5353937,104.984 84.9960236,102.756 C87.3188583,101.29 89.5629528,99.688 91.6475984,97.886 C91.8916929,97.682 92.0550787,97.402 92.2420866,97.148 C94.9035039,95.142 97.3385433,92.81 99.2696457,90.062 C100.956654,88.57 102.44878,86.862 103.88185,85.12 C106.293268,82.172 107.870039,78.662 109.570827,75.272 C110.419252,73.556 111.417283,71.922 112.222402,70.186 C113.799213,66.808 114.923228,63.23 115.781496,59.6 M97.3464567,95.304 C96.3188976,95.598 95.6240157,96.476 94.9232283,97.234 C94.3385827,97.908 93.5728346,98.374 92.9232283,98.976 C92.2992126,99.594 91.3562992,99.6 90.6614173,100.102 C90.1082677,100.414 89.7834646,100.974 89.4488189,101.496 C89.1417323,102.06 88.3523622,102.046 88.0413386,102.604 C87.7480315,103.128 87.3799213,103.624 87.1909449,104.2 C87.234252,104.84 87.7814961,105.44 88.4291339,105.43602 C88.9586614,105.326 89.4153543,104.964 89.726378,104.526 C90.0492126,104.032 89.8740157,103.334 90.253937,102.878 C90.8287402,102.61 91.503937,102.624 92.0688976,102.308 C93.0393701,101.812 94.238189,102.104 95.1476378,101.446 C95.75,101.084 95.984252,100.39 96.2775591,99.79 C96.5295276,99.196 97.1515748,98.936 97.6515748,98.604 C98.1889764,98.296 98.6692913,97.9 99.1122047,97.468 C99.5275591,97.014 100.216535,97.06 100.667323,96.666 C100.919291,96.38 101.114173,95.882 100.834646,95.552 C100.161417,95.148 99.3661417,95.526 98.6437008,95.394 C98.2125984,95.356 97.7755906,95.188 97.3464567,95.304 M102.677165,103.5 C102.07874,103.808 101.622047,104.492 101.663386,105.186 C101.685039,105.636 102.21063,105.772 102.580709,105.722 C103.482283,105.684 104.027559,104.538 103.63189,103.756 C103.444882,103.418 103,103.364 102.677165,103.5 M83.3897638,104.336 C82.6181102,104.732 82.3267717,105.638 81.7755906,106.262 C81,106.796 79.9114173,106.406 79.1555118,107.006 C78.4232283,107.546 77.6062992,108.376 77.8464567,109.384 C78.1141732,110.144 78.9980315,110.492 79.7401575,110.504 C80.4173228,110.398 81.0374016,110.052 81.6377953,109.728 C82.5098425,109.278 82.7795276,108.218 83.5570866,107.66 C84.1358268,107.19 84.9822835,107.004 85.3169291,106.27 C85.5314961,105.722 85.6043307,104.958 85.1515748,104.514 C84.6220472,104.214 83.9645669,104.16 83.3897638,104.336 M114.226378,104.442 C113.88189,104.56 113.547244,104.912 113.688976,105.308 C113.980315,105.784 114.714567,106.232 115.212598,105.81 C115.740157,105.142 115.086614,103.956 114.226378,104.442 M107.931102,107.824 C106.224409,108.566 104.261811,108.398 102.606299,109.282 C100.950787,110.114 99.8759843,111.798 98.1377953,112.488 C97.1791339,112.76 97.2559055,114.454 98.2795276,114.534 C99.0314961,114.676 99.4586614,113.922 100.011811,113.57 C100.496063,113.46802 101.009843,113.48 101.435039,113.184 C101.692913,112.974 101.958661,113.326 102.206693,113.404 C102.675177,113.086 103.228346,113.016 103.779528,113.09 C105.234252,113.232 106.383858,112.166 107.472441,111.354 C108.519665,110.512 109.901575,110.184 110.836614,109.19 C111.364173,108.664 111.316929,107.7 110.933071,107.126 C109.887795,106.886 108.88189,107.458 107.931102,107.824 M94.5748031,108.902 C94.0059055,109.146 93.4251969,109.558 93.2559055,110.196 C93.1771654,111.192 94.0984252,112.176 95.0984252,112.064 C96.3818898,111.996 97.3759843,110.446 96.8090551,109.25 C96.3562992,108.47 95.2795276,108.608 94.5748031,108.902 M90.6417323,110.712 C89.9822835,110.92 89.6220472,111.602 89.3602362,112.2 C89.4606299,112.988 90.2834646,113.466 90.9783465,113.644 C92.0019685,113.672 92.7716535,112.696 93.0807087,111.802 C92.8759843,110.768 91.515748,110.474 90.6417323,110.712 M76.4566929,118.492 C76.0314961,119.458 75.9389764,120.622 76.3503937,121.61 C76.7637795,122.506 77.8228346,122.652 78.6653543,122.872 C80.3661417,123.344 82.2007874,122.506 83.257874,121.136 C83.3051181,122.592 85.757874,122.396 85.7145669,121.004 C85.6850394,120.06 84.4409449,119.944 83.8070866,120.34 C84.3307087,119.348 84.3700787,118.174 84.1574803,117.09 C84.0472441,116.458 83.5748031,115.96 83.0433071,115.654 C80.5669291,114.848 77.6358268,116.152 76.4566929,118.492 M88.4822835,116.686 C87.4055118,117.184 87.0807087,118.816 87.9409449,119.662 C88.5472441,120.258 89.8267717,120.292 90.2066929,119.418 C90.511811,118.624 90.2814961,117.676 89.753937,117.034 C89.4547244,116.684 88.9074803,116.402 88.4822835,116.686 M56.7913386,119.5 C56.2854331,119.686 56.0649606,120.298 55.5334646,120.428 C54.8641732,120.514 54.230315,120.144 53.5590551,120.188 C53.1496063,120.254 52.7952756,120.49 52.4468504,120.7 L52.6712598,120.554 C51.9291339,120.35 51.0787402,120.284 50.4389764,120.792 C49.9350394,120.548 49.3681102,120.752 48.8543307,120.842 C47.8602362,121.088 46.761811,121.178 45.9271654,121.84 C45.2716535,122.382 45.1279528,123.3 44.5610236,123.918 C44.0610236,123.848 43.6082677,123.614 43.1279528,123.478 C42.3720472,123.394 41.7874016,124.23 42.0334646,124.938 C42.3149606,125.408 42.9783465,125.328 43.4173228,125.17 C43.6476378,125.348 43.8267717,125.688 44.1574803,125.666 C44.4547244,125.692 44.6594488,125.43 44.8937008,125.292 C45.3602362,125.796 46.0866142,125.75 46.7066929,125.864 C47.503937,126.002 48.3425197,125.968 49.0787402,125.604 C50.007874,126.11 51.015748,125.638 51.9704724,125.5 C52.9980315,125.32 54.1181102,125.28 55.007874,124.666 C55.4291339,124.37 55.7716535,123.774 55.6043307,123.266 C56.2775591,123.54 56.9488189,123.912 57.6968504,123.886 C58.746063,123.872 59.8661417,123.544 60.5984252,122.744 C61.0374016,122.226 61.3287402,121.36 60.8287402,120.786 C60.2992126,120.174 59.5669291,119.798 58.8700787,119.424 C58.2244094,119.066 57.4370079,119.23 56.7913386,119.5 M70.8622047,121.204 C70.5708661,121.59 70.761811,122.332 71.2834646,122.386 C71.8307087,122.428 72.6023622,122.23 72.6830709,121.574 C72.6318898,121.124 72.1830709,120.984 71.8543307,120.792 C71.519685,120.916 71.1673228,121.01 70.8622047,121.204 M38.7106299,125.174 C38.1161417,124.97 37.3248031,124.918 36.9448819,125.536 C36.6594488,124.986 35.9350394,124.738 35.3582677,124.916 C34.6397638,125.146 34.1909449,125.854 33.476378,126.088 C32.7440945,126.124 31.9507874,125.956 31.2854331,126.362 C30.8503937,126.634 30.3838583,127.048 30.3622047,127.606 C30.4311024,128.25 31.1220472,128.592 31.6988189,128.618 C32.3484252,128.712 32.8996063,128.312 33.484252,128.108 C34.1102362,128.078 34.6673228,128.446 35.234252,128.672 C36.1141732,128.404 37.0216535,127.934 37.3976378,127.024 C38.1062992,127.338 38.8444882,126.95 39.4389764,126.568 C40.1181102,126.706 40.8385827,126.116 40.6279528,125.384 C40.4409449,124.47 39.1417323,124.428 38.7106299,125.174 M7.97637795,134.274 C7.13779528,134.672 7.27755906,135.838 7.0984252,136.616 C6.99015748,137.752 5.77362205,138.216 5.29133858,139.142 C5.01968504,139.836 5.48622047,140.52 5.56299213,141.206 C5.41141732,141.834 4.84448819,142.328 4.88779528,143.018 C4.94291339,143.638 5.84645669,143.696 6.20866142,143.326 C6.4980315,142.788 6.2519685,142.126 6.48031496,141.57 C6.8503937,140.964 7.78543307,140.922 8,140.186 C8.23228346,139.188 7.64173228,138.208 7.82480315,137.21 C8.08464567,136.436 8.76968504,135.84 8.84448819,134.998 C8.90944882,134.52 8.39370079,134.202 7.97637795,134.274 M3.53740157,146.836 C3.43503937,147.508 3.56889764,148.252 4.01968504,148.776 C3.71062992,149.75 3.67716535,150.78 3.58267717,151.792 C3.51771654,152.614 3.48818898,153.512 3.92125984,154.246 C4.16535433,154.686 4.67913386,154.836 5.02559055,155.172 C4.90551181,156.356 4.1023622,157.39 4.20275591,158.612 C4.23228346,159.07 4.5492126,159.428 4.76181102,159.814 C5.3976378,160.85 5.32874016,162.224 6.17322835,163.144 C6.61614173,163.65 7.51181102,163.922 7.98818898,163.314 C8.65944882,162.436 8.78740157,161.268 8.84448819,160.194 C8.91732283,159.308 8.5,158.512 8.23818898,157.7 C8.05905512,157.154 8.12795276,156.568 8.00393701,156.016 C7.83267717,155.464 7.46062992,154.986 7.38582677,154.406 C7.52165354,153.402 8.45472441,152.654 8.37204724,151.596 C8.2992126,150.596 8.05905512,149.612 8.05905512,148.604 C8.08858268,148.082 7.83858268,147.63 7.53543307,147.236 C7.76574803,146.768 7.93897638,146.214 7.78543307,145.698 C7.63779528,145.254 7.13385827,145.088 6.71259843,145.118 C5.47244094,145.172 4.29724409,145.852 3.53740157,146.836 Z" id="Shape"></path>
                <path d="M152.826772,58.252 C152.887795,58.502 152.870079,58.766 152.799213,59.014 C151.933071,62.39 150.925197,65.728 149.889764,69.054 C148.687008,72.808 146.809055,76.3 144.706693,79.606 C144.244094,80.302 143.838583,81.042 143.281496,81.666 C143.200787,80.864 142.584646,80.302 142.283465,79.596 C142.259843,79.008 142.362205,78.424 142.38189,77.838 C143.019685,76.588 143.706693,75.34 144.125984,73.992 C144.511811,72.594 144.334646,70.93 143.267717,69.88 C142.612205,69.188 141.624016,68.476 140.643701,68.872 C139.610236,69.452 139.507874,70.89 138.494094,71.508 C137.625984,72.23 136.474409,72.21 135.431102,72.418 C134.442913,72.692 134.318898,73.856 134.129921,74.71 C133.923228,75.662 132.744094,75.846 132.413386,76.716 C132.13189,77.41 131.992126,78.186 131.474409,78.756 C130.933071,79.354 130.974409,80.286 130.38189,80.844 C129.919291,81.232 129.354331,81.502 128.765748,81.61 C128.257874,81.482 127.836614,80.81 127.277559,81.094 C127.005906,81.436 126.913386,81.886 126.641732,82.226 C126.281496,82.526 125.783465,82.376 125.415354,82.178 C124.440945,81.638 123.777559,80.678 123.30315,79.684 C122.555118,78.158 120.773622,77.59 119.919291,76.156 C119.653543,75.678 119.964567,75.154 120.257874,74.778 C121.007874,73.846 121.637795,72.81 122.139764,71.72 C122.728366,70.406 122.40748,68.818 123.224409,67.592 C123.722441,66.76 124.726378,66.482 125.620079,66.378 C125.708661,66.41 125.885827,66.47 125.974409,66.502 C126.952756,67.422 127.61811,69.05 129.145669,69.114 C130.017717,69.14 130.858268,69.45 131.724409,69.482 C132.714567,69.272 132.604331,67.828 133.517717,67.516 C134.751969,67.144 135.838583,66.366 137.123996,66.154 C139.175177,65.712 141.218484,66.456 143.108248,67.2 C144.074783,67.54 144.773602,68.638 145.89565,68.438 C147.614154,68.332 149.029508,67.146 150.051161,65.826 C150.683051,64.892 150.846437,63.74 151.299193,62.72 C151.982283,61.284 151.966535,59.614 152.826772,58.252 Z" id="Path"></path>
                <path d="M102.423228,73.418 C103.05315,73.074 103.720472,72.806 104.336614,72.434 C104.688976,72.728 105.094488,72.994 105.314961,73.416 C105.338583,73.68 105.192913,73.92 105.100394,74.158 C104.281496,75.902 103.108268,77.434 101.974409,78.972 C101.779528,79.228 101.551181,79.456 101.320886,79.676 L101.352382,79.36 C101.519705,78.416 101.456713,77.354 100.807106,76.6 C99.9350591,75.516 98.4763976,75.23 97.1673425,75.294 C98.9350394,74.73 100.905512,74.626 102.423228,73.418 Z" id="Path"></path>
                <path d="M135.362205,77.33 C135.891732,76.34 136.588583,75.318 137.616142,74.824 C138.212598,75.008 138.653543,75.496 139.11811,75.898 C139.923228,76.576 140.088602,77.688 140.641752,78.546 C140.551201,78.968 140.521673,79.476 140.108287,79.718 C139.468524,80.158 138.795295,80.594 138.047264,80.808 C137.253957,80.548 137.257913,79.366 136.442933,79.114 C135.732303,78.972 135.047264,79.414 134.73624,80.048 C134.10435,81.222 132.862224,81.858 132.175217,82.988 C132.253957,82.56 132.202776,82.096 132.381909,81.696 C132.708681,81.292 133.187028,81.04 133.476398,80.604 C134.127953,79.524 134.879921,78.504 135.362205,77.33 Z" id="Path"></path>
                <path d="M91.1515748,75.588 C93.1614173,75.568 95.1555118,75.186 97.1653543,75.294 C96.1732283,75.552 95.2224409,75.936 94.253937,76.268 C94.023622,76.34 93.7972441,76.428 93.5767717,76.526 C92.9311024,76.772 92.2775591,77.072 91.5748031,77.06 C91.0629921,77.09 90.4094488,76.978 90.0767717,77.484 C89.7952756,77.996 89.8681102,78.622 89.7716535,79.186 C89.746063,79.45 89.7362205,79.714 89.746063,79.98 C88.7834646,79.276 87.8011811,78.538 86.6338583,78.228 C86.1909449,78.048 85.5374016,77.978 85.4133858,77.416 C85.4350394,77 85.7480315,76.684 85.9429134,76.34 C87.6830709,76.126 89.4133858,75.824 91.1515748,75.588 Z" id="Path"></path>
                <path d="M90.9645669,80.774 C91.6870079,80.868 92.4370079,80.778 93.1377953,81.026 C93.9822835,81.302 94.7972441,81.69 95.6850394,81.814 C96.8937008,82.016 98.238189,82.302 99.3543307,81.61 C98.9035433,82.312 98.2559055,82.856 97.8267913,83.572 C97.3110236,84.416 96.7559252,85.298 95.8740354,85.786 C95.3897835,86.062 94.6850591,86.064 94.3326969,85.572 C93.6319094,84.676 93.7185039,83.4 93.0157677,82.502 C92.4685039,81.772 91.6574803,81.338 90.9645669,80.774 Z" id="Path"></path>
                <path d="M133.366142,101.482 C133.966535,101.192 134.338583,101.888 134.326772,102.408 C134.48622,104.908 134.112205,107.436 133.350394,109.814 C132.962598,111.088 132.277559,112.298 131.238189,113.134 C129.915354,114.22 128.226378,114.646 126.606299,115.036 C125.988189,115.164 125.372047,115.412 124.734272,115.292 C123.887815,115.14398 123.098425,115.61 122.259862,115.634 C121.271673,115.758 120.192933,115.298 119.716555,114.386 C119.464587,113.884 119.704744,113.312 119.996083,112.89 C120.627972,111.994 121.545295,111.378 122.366161,110.68 C125.377972,108.08 128.413406,105.514 131.450807,102.946 C132.076772,102.444 132.629921,101.818 133.366142,101.482 M129.224409,105.694 C128.738189,105.91802 128.222441,106.59202 128.675197,107.09 C129.124016,107.602 130.015748,107.936 130.588583,107.448 C131.17126,106.594 130.248031,105.11 129.224409,105.694 Z" id="Shape"></path>
            </g>
        </g>
    </g>
</svg>